<?xml version="1.0" standalone="no"?><!DOCTYPE svg PUBLIC "-//W3C//DTD SVG 1.1//EN" "http://www.w3.org/Graphics/SVG/1.1/DTD/svg11.dtd"><svg t="1547064160391" class="icon" style="" viewBox="0 0 1024 1024" version="1.1" xmlns="http://www.w3.org/2000/svg" p-id="2091" xmlns:xlink="http://www.w3.org/1999/xlink" width="128" height="128"><defs><style type="text/css"></style></defs><path d="M947.188 835.927l-50.079-35.055c-18.559-12.992-56.418-22.725-85.694-22.725H585.19v-79.844h288.761c2.2 0 4-1.8 4-4V156.702c0-2.2-1.8-4-4-4H176.663c-2.2 0-4 1.8-4 4v537.601c0 2.2 1.8 4 4 4h302.069v79.844H212.585c-29.276 0-67.134 9.734-85.694 22.725l-50.079 35.055c-26.411 18.488-17.538 35.371 22.786 35.371h824.803c40.324 0 49.198-16.883 22.787-35.371zM427.175 491.008a16.001 16.001 0 0 1-27.018 4.917l-66.792-76.29-30.074 34.372a16.002 16.002 0 0 1-12.042 5.464h-38.742c-8.836 0-16-7.164-16-16s7.164-16 16-16h31.481l37.331-42.666a16 16 0 0 1 24.08-0.004l61.215 69.92 60.521-161.261a16 16 0 0 1 30.347 1.168l41.855 144.388c0.045 0.156 0.088 0.313 0.128 0.47l17.727 68.934 53.023-135.33a16.001 16.001 0 0 1 14.896-10.163h0.1a16 16 0 0 1 14.87 10.347l35.146 93.072 36.371-46.095a16 16 0 0 1 12.561-6.089H784.8c8.837 0 16 7.164 16 16s-7.163 16-16 16h-52.885l-49.098 62.224a16 16 0 1 1-27.529-4.259l-30.451-80.64-55.913 142.705a16 16 0 0 1-30.393-1.852l-29.996-116.649-28.371-97.873-52.989 141.19z" p-id="2092" fill="#bfbfbf"></path></svg>